<?xml version="1.0" encoding="UTF-8" standalone="no"?>
<svg width="1466px" height="1275px" viewBox="0 0 1466 1275" version="1.1" xmlns="http://www.w3.org/2000/svg" xmlns:xlink="http://www.w3.org/1999/xlink" xmlns:sketch="http://www.bohemiancoding.com/sketch/ns">
    <title>leveldb</title>
    <description>Created with Sketch (http://www.bohemiancoding.com/sketch)</description>
    <defs></defs>
    <g id="Page-1" stroke="none" stroke-width="1" fill="none" fill-rule="evenodd" sketch:type="MSPage">
        <g id="leveldb-(3)" sketch:type="MSLayerGroup" transform="translate(354.000000, 38.000000)">
            <path d="M70.1376789,3.11352394 C88.0959811,2.60414176 106.232942,3.7272374 123.698392,8.15211149 C131.60251,10.2571487 139.611358,12.8470195 146.289505,17.7076302 C149.622418,20.1686212 152.825958,23.6974736 152.75203,28.0855249 C152.721227,40.1449945 152.869082,52.2106012 152.65962,64.2639337 C152.745869,97.4228723 153.023099,130.581811 152.998456,163.740749 C152.234535,168.576811 153.891751,173.928393 151.119457,178.30417 C147.860472,183.631203 142.297402,186.932981 136.925313,189.811297 C123.347235,196.605105 108.235154,199.685947 93.2216441,201.263191 C85.4961857,201.803259 77.7276029,202.324915 69.9836626,201.748024 C53.2328482,200.852003 36.3218569,197.881629 21.000314,190.860747 C14.8396614,187.853551 8.50034992,184.238779 4.68690598,178.359404 C2.36433996,174.922609 3.15906414,170.6573 3.03585109,166.772494 C2.93728065,151.233269 3.27611654,135.694044 3.10361827,120.148682 C2.87567413,102.54738 3.1775461,84.9460775 3.14674284,67.3386382 C2.96808391,54.2419928 3.0481724,41.1392103 3.0481724,28.0364278 C2.96192326,24.4277926 5.22904341,21.254894 7.85964206,18.9902913 C13.9833307,13.8657839 21.6656645,11.1408961 29.2309458,8.91311619 C42.5379554,5.23083539 56.3562991,3.55539763 70.1376789,3.11352394 C70.1376789,3.11352394 56.3562991,3.55539763 70.1376789,3.11352394 L70.1376789,3.11352394 L70.1376789,3.11352394 Z M70.1376789,3.11352394" id="Shape" fill="#FFFFFF" sketch:type="MSShapeGroup"></path>
            <path d="M77.2716646,23.0682669 C80.873535,22.7913258 84.4506077,23.4129048 87.9966832,23.9298616 C105.510081,26.5946509 122.880891,30.0964178 140.400488,32.7058189 C142.055737,32.9027548 143.748182,33.1489247 145.40963,32.908909 C147.666223,31.7334477 149.166486,29.6102322 150.679148,27.6470272 C151.1999,31.1241772 150.914726,34.6567154 150.97672,38.1584823 C150.939524,46.5590305 151.057313,54.9657329 150.927125,63.366281 C150.418771,65.8464428 150.76594,68.8620242 148.720127,70.720607 C147.381049,71.9514566 145.818792,73.4407845 143.828774,73.1453806 C136.029888,72.7084291 128.367389,71.0283194 120.624298,70.0928738 C120.5995,73.9885126 120.587101,77.8841514 120.636697,81.7859444 C104.803345,84.9492278 88.6290253,86.4570185 72.4795031,85.8785192 C56.8693315,85.4415676 41.2281627,83.3860489 26.2379343,78.967299 C21.0304108,77.3302691 15.7918902,75.5024575 11.2043099,72.5114931 C9.17089601,71.0960161 6.93910022,69.1943536 7.1622798,66.4680219 C6.8399093,57.852075 7.11268434,49.2238197 7.02589228,40.6017187 C7.11268434,36.3491335 6.79651327,32.0719313 7.28006902,27.8316547 C9.50566537,31.9857719 13.9196615,34.1459128 17.9988882,36.1152721 C26.2379343,39.8755175 35.072126,42.1525891 43.9373148,43.9065497 C67.0426006,48.2329859 90.9786104,48.2329859 114.077697,43.8326987 C116.44588,43.3465132 118.882257,43.0080295 121.120252,42.0479669 C119.093038,40.6263357 116.855043,39.5739593 114.561252,38.6508222 C103.87343,34.2628435 92.9128334,30.5579864 82.2498091,26.0961568 C80.4767713,25.2961046 78.567346,24.5883661 77.2716646,23.0682669 C77.2716646,23.0682669 78.567346,24.5883661 77.2716646,23.0682669 L77.2716646,23.0682669 L77.2716646,23.0682669 Z M77.2716646,23.0682669" id="Shape" fill="#689D08" sketch:type="MSShapeGroup"></path>
            <path d="M7.0112608,87.0371294 C23.8644314,97.2229676 43.7310828,100.824522 63.101688,102.433463 C80.3082916,103.534969 97.6947118,103.033722 114.684295,99.921039 C127.321073,97.5447559 139.970252,93.8689431 150.939074,87 C151.056885,97.6808972 150.957676,108.361794 150.994879,119.04888 C151.149893,123.368269 147.758177,126.697541 144.552479,129.104765 C136.801756,134.531849 127.50089,137.137097 118.38604,139.216344 C105.743062,141.858721 92.8024559,143.145875 79.8866523,142.978792 C64.775844,143.195381 49.5782277,141.765898 34.90146,138.096273 C27.101133,136.023214 19.1891957,133.436531 12.678589,128.516882 C9.75811679,126.202482 6.86244693,122.996975 7.00506022,119.030315 C7.01746138,108.361794 7.00506022,97.6994619 7.0112608,87.0371294 C7.0112608,87.0371294 7.00506022,97.6994619 7.0112608,87.0371294 L7.0112608,87.0371294 L7.0112608,87.0371294 Z M7.0112608,87.0371294" id="Shape" fill="#689D08" sketch:type="MSShapeGroup"></path>
            <path d="M7.05021572,143 C19.6282553,150.489857 33.9606493,154.436126 48.3364372,156.641576 C66.5990812,159.348827 85.2150756,159.602826 103.54591,157.453132 C120.004606,155.507875 136.574887,151.536826 150.938277,143 C151.018866,152.137749 150.938277,161.281694 150.981671,170.425638 C151.260632,174.762197 148.309845,178.448272 145.235075,181.155524 C138.595804,186.75588 130.425348,190.132201 122.242493,192.789893 C104.40139,198.266347 85.5002357,199.901849 66.9276352,198.551321 C56.4015084,197.776935 45.9311739,195.924605 35.8389864,192.808478 C28.1644605,190.336639 20.5395277,187.214317 14.1110275,182.252054 C10.4411411,179.39612 6.75265737,175.356925 7.01302093,170.388468 C7.05641485,161.256913 6.98202526,152.125359 7.05021572,143 C7.05021572,143 6.98202526,152.125359 7.05021572,143 L7.05021572,143 L7.05021572,143 Z M7.05021572,143" id="Shape" fill="#689D08" sketch:type="MSShapeGroup"></path>
        </g>
        <g id="leveldb-(3)" sketch:type="MSLayerGroup" transform="translate(22.000000, 522.000000)">
            <path d="M74.1659396,3.12094007 C93.20174,2.57828167 112.426919,3.77474537 130.940296,8.48868159 C139.31866,10.7312338 147.808039,13.4902921 154.886876,18.6684301 C158.419763,21.2901894 161.815515,25.0495699 161.737152,29.7242777 C161.7045,42.5715519 161.861227,55.4253641 161.639197,68.2661002 C161.730621,103.591201 162.024484,138.916301 161.998363,174.241401 C161.188607,179.393387 162.945256,185.094569 160.006624,189.756201 C156.5521,195.431231 150.655247,198.948704 144.960832,202.015051 C130.568069,209.252675 114.549264,212.534778 98.6349427,214.215057 C90.4459569,214.790406 82.211259,215.346141 74.0026823,214.731564 C56.2468191,213.777008 38.3211683,210.61259 22.0803328,203.133058 C15.5500411,199.929412 8.83037092,196.078498 4.78812034,189.815044 C2.32620036,186.153734 3.16860799,181.609787 3.03800216,177.4712 C2.93351749,160.916849 3.29268354,144.362499 3.10983537,127.801611 C2.86821457,109.050475 3.18819887,90.2993388 3.15554741,71.5416648 C2.96616895,57.5894597 3.05106274,43.6307165 3.05106274,29.6719733 C2.95963866,25.8275982 5.36278601,22.4474248 8.15122058,20.0348832 C14.6423306,14.5756089 22.7856043,11.6727134 30.8048026,9.29940016 C44.9102327,5.37656836 59.557677,3.59167989 74.1659396,3.12094007 C74.1659396,3.12094007 59.557677,3.59167989 74.1659396,3.12094007 L74.1659396,3.12094007 L74.1659396,3.12094007 Z M74.1659396,3.12094007" id="Shape" fill="#FFFFFF" sketch:type="MSShapeGroup"></path>
            <path d="M81.1756459,25.0726013 C84.9776203,24.7780766 88.7534192,25.439121 92.4964989,25.9889004 C110.982863,28.8228827 129.318718,32.546984 147.811626,35.3220613 C149.558833,35.5315011 151.345303,35.7933009 153.099054,35.5380461 C155.481013,34.2879523 157.064624,32.0299295 158.661322,29.9420766 C159.211005,33.639998 158.909989,37.3968243 158.975427,41.1209257 C158.936164,50.0548419 159.060497,58.9953032 158.923076,67.9292195 C158.386481,70.5668519 158.752936,73.7738988 156.593467,75.7504868 C155.179997,77.0594856 153.530947,78.643374 151.430373,78.3292143 C143.198215,77.8645198 135.110022,76.0777365 126.936759,75.0828975 C126.910583,79.2258785 126.897496,83.3688594 126.949846,87.5183854 C110.236865,90.8825121 93.1639712,92.4860355 76.1172532,91.8708061 C59.6398499,91.4061116 43.1297273,89.2200837 27.3067084,84.5207783 C21.8098781,82.77981 16.2803285,80.8359469 11.4378827,77.65508 C9.29150134,76.1497315 6.9357169,74.1273284 7.17129534,71.2278963 C6.83101537,62.0649052 7.11894458,52.8888242 7.02733074,43.7192881 C7.11894458,39.1966975 6.78520845,34.647927 7.29562841,30.1384264 C9.644869,34.5562971 14.3040871,36.8535898 18.6099376,38.9479878 C27.3067084,42.9469789 36.6316885,45.3686265 45.9893878,47.2339497 C70.3783006,51.8350802 95.6440887,51.8350802 120.026458,47.1554098 C122.526207,46.6383553 125.097938,46.2783806 127.460266,45.2573616 C125.320429,43.7454681 122.958101,42.6262742 120.536878,41.6445251 C109.255288,36.9779447 97.6857686,33.0378586 86.430354,28.2927382 C84.5588142,27.441889 82.5433097,26.6892147 81.1756459,25.0726013 C81.1756459,25.0726013 82.5433097,26.6892147 81.1756459,25.0726013 L81.1756459,25.0726013 L81.1756459,25.0726013 Z M81.1756459,25.0726013" id="Shape" fill="#689D08" sketch:type="MSShapeGroup"></path>
            <path d="M7.0118864,93.0397815 C24.8013442,103.95318 45.7716985,107.811987 66.2184485,109.535853 C84.3809744,110.716039 102.733307,110.178988 120.666756,106.84397 C134.005577,104.297953 147.357488,100.359582 158.935689,93 C159.060045,104.443818 158.955324,115.887637 158.994595,127.338085 C159.158221,131.966003 155.578076,135.533079 152.194283,138.112248 C144.012965,143.926981 134.195383,146.718318 124.574153,148.946083 C111.228788,151.777202 97.569259,153.156294 83.9359107,152.977278 C67.9856132,153.209336 51.9436848,151.677748 36.4515411,147.746007 C28.2178626,145.524872 19.8663732,142.753426 12.9940661,137.482374 C9.9113455,135.002659 6.85480509,131.568187 7.00534135,127.318195 C7.01843145,115.887637 7.00534135,104.463709 7.0118864,93.0397815 C7.0118864,93.0397815 7.00534135,104.463709 7.0118864,93.0397815 L7.0118864,93.0397815 L7.0118864,93.0397815 Z M7.0118864,93.0397815" id="Shape" fill="#689D08" sketch:type="MSShapeGroup"></path>
            <path d="M7.05300548,152 C20.329825,160.024847 35.4584631,164.252992 50.632906,166.615974 C69.9101412,169.516601 89.5603576,169.788742 108.909572,167.485498 C126.28264,165.401295 143.773492,161.146599 158.934848,152 C159.019914,161.790446 158.934848,171.587529 158.980653,181.384612 C159.275111,186.030926 156.160392,189.980292 152.914802,192.880919 C145.906682,198.8813 137.282312,202.498787 128.644854,205.346313 C109.812579,211.213943 89.8613599,212.966267 70.2569482,211.519272 C59.1460367,210.689574 48.0940169,208.704934 37.4411523,205.366226 C29.3402639,202.717828 21.2917237,199.372482 14.5060846,194.055772 C10.6323156,190.995843 6.73891611,186.668134 7.01374431,181.344787 C7.05954901,171.560979 6.98102667,161.777171 7.05300548,152 C7.05300548,152 6.98102667,161.777171 7.05300548,152 L7.05300548,152 L7.05300548,152 Z M7.05300548,152" id="Shape" fill="#689D08" sketch:type="MSShapeGroup"></path>
        </g>
        <g id="leveldb-(3)" sketch:type="MSLayerGroup" transform="translate(1254.000000, 1004.000000)">
            <path d="M74.1659396,3.12094007 C93.20174,2.57828167 112.426919,3.77474537 130.940296,8.48868159 C139.31866,10.7312338 147.808039,13.4902921 154.886876,18.6684301 C158.419763,21.2901894 161.815515,25.0495699 161.737152,29.7242777 C161.7045,42.5715519 161.861227,55.4253641 161.639197,68.2661002 C161.730621,103.591201 162.024484,138.916301 161.998363,174.241401 C161.188607,179.393387 162.945256,185.094569 160.006624,189.756201 C156.5521,195.431231 150.655247,198.948704 144.960832,202.015051 C130.568069,209.252675 114.549264,212.534778 98.6349427,214.215057 C90.4459569,214.790406 82.211259,215.346141 74.0026823,214.731564 C56.2468191,213.777008 38.3211683,210.61259 22.0803328,203.133058 C15.5500411,199.929412 8.83037092,196.078498 4.78812034,189.815044 C2.32620036,186.153734 3.16860799,181.609787 3.03800216,177.4712 C2.93351749,160.916849 3.29268354,144.362499 3.10983537,127.801611 C2.86821457,109.050475 3.18819887,90.2993388 3.15554741,71.5416648 C2.96616895,57.5894597 3.05106274,43.6307165 3.05106274,29.6719733 C2.95963866,25.8275982 5.36278601,22.4474248 8.15122058,20.0348832 C14.6423306,14.5756089 22.7856043,11.6727134 30.8048026,9.29940016 C44.9102327,5.37656836 59.557677,3.59167989 74.1659396,3.12094007 C74.1659396,3.12094007 59.557677,3.59167989 74.1659396,3.12094007 L74.1659396,3.12094007 L74.1659396,3.12094007 Z M74.1659396,3.12094007" id="Shape" fill="#FFFFFF" sketch:type="MSShapeGroup"></path>
            <path d="M81.1756459,25.0726013 C84.9776203,24.7780766 88.7534192,25.439121 92.4964989,25.9889004 C110.982863,28.8228827 129.318718,32.546984 147.811626,35.3220613 C149.558833,35.5315011 151.345303,35.7933009 153.099054,35.5380461 C155.481013,34.2879523 157.064624,32.0299295 158.661322,29.9420766 C159.211005,33.639998 158.909989,37.3968243 158.975427,41.1209257 C158.936164,50.0548419 159.060497,58.9953032 158.923076,67.9292195 C158.386481,70.5668519 158.752936,73.7738988 156.593467,75.7504868 C155.179997,77.0594856 153.530947,78.643374 151.430373,78.3292143 C143.198215,77.8645198 135.110022,76.0777365 126.936759,75.0828975 C126.910583,79.2258785 126.897496,83.3688594 126.949846,87.5183854 C110.236865,90.8825121 93.1639712,92.4860355 76.1172532,91.8708061 C59.6398499,91.4061116 43.1297273,89.2200837 27.3067084,84.5207783 C21.8098781,82.77981 16.2803285,80.8359469 11.4378827,77.65508 C9.29150134,76.1497315 6.9357169,74.1273284 7.17129534,71.2278963 C6.83101537,62.0649052 7.11894458,52.8888242 7.02733074,43.7192881 C7.11894458,39.1966975 6.78520845,34.647927 7.29562841,30.1384264 C9.644869,34.5562971 14.3040871,36.8535898 18.6099376,38.9479878 C27.3067084,42.9469789 36.6316885,45.3686265 45.9893878,47.2339497 C70.3783006,51.8350802 95.6440887,51.8350802 120.026458,47.1554098 C122.526207,46.6383553 125.097938,46.2783806 127.460266,45.2573616 C125.320429,43.7454681 122.958101,42.6262742 120.536878,41.6445251 C109.255288,36.9779447 97.6857686,33.0378586 86.430354,28.2927382 C84.5588142,27.441889 82.5433097,26.6892147 81.1756459,25.0726013 C81.1756459,25.0726013 82.5433097,26.6892147 81.1756459,25.0726013 L81.1756459,25.0726013 L81.1756459,25.0726013 Z M81.1756459,25.0726013" id="Shape" fill="#689D08" sketch:type="MSShapeGroup"></path>
            <path d="M7.0118864,93.0397815 C24.8013442,103.95318 45.7716985,107.811987 66.2184485,109.535853 C84.3809744,110.716039 102.733307,110.178988 120.666756,106.84397 C134.005577,104.297953 147.357488,100.359582 158.935689,93 C159.060045,104.443818 158.955324,115.887637 158.994595,127.338085 C159.158221,131.966003 155.578076,135.533079 152.194283,138.112248 C144.012965,143.926981 134.195383,146.718318 124.574153,148.946083 C111.228788,151.777202 97.569259,153.156294 83.9359107,152.977278 C67.9856132,153.209336 51.9436848,151.677748 36.4515411,147.746007 C28.2178626,145.524872 19.8663732,142.753426 12.9940661,137.482374 C9.9113455,135.002659 6.85480509,131.568187 7.00534135,127.318195 C7.01843145,115.887637 7.00534135,104.463709 7.0118864,93.0397815 C7.0118864,93.0397815 7.00534135,104.463709 7.0118864,93.0397815 L7.0118864,93.0397815 L7.0118864,93.0397815 Z M7.0118864,93.0397815" id="Shape" fill="#689D08" sketch:type="MSShapeGroup"></path>
            <path d="M7.05300548,152 C20.329825,160.024847 35.4584631,164.252992 50.632906,166.615974 C69.9101412,169.516601 89.5603576,169.788742 108.909572,167.485498 C126.28264,165.401295 143.773492,161.146599 158.934848,152 C159.019914,161.790446 158.934848,171.587529 158.980653,181.384612 C159.275111,186.030926 156.160392,189.980292 152.914802,192.880919 C145.906682,198.8813 137.282312,202.498787 128.644854,205.346313 C109.812579,211.213943 89.8613599,212.966267 70.2569482,211.519272 C59.1460367,210.689574 48.0940169,208.704934 37.4411523,205.366226 C29.3402639,202.717828 21.2917237,199.372482 14.5060846,194.055772 C10.6323156,190.995843 6.73891611,186.668134 7.01374431,181.344787 C7.05954901,171.560979 6.98102667,161.777171 7.05300548,152 C7.05300548,152 6.98102667,161.777171 7.05300548,152 L7.05300548,152 L7.05300548,152 Z M7.05300548,152" id="Shape" fill="#689D08" sketch:type="MSShapeGroup"></path>
        </g>
        <text id="LEVELDB" fill="#393939" sketch:type="MSTextLayer" font-family="Droid Sans Mono for Powerline" font-size="64" font-weight="normal">
            <tspan x="294" y="359">LEVEL</tspan>
            <tspan x="486.03125" y="359" fill="#689D08">DB</tspan>
        </text>
        <g id="leveldb-(3)" sketch:type="MSLayerGroup" transform="translate(859.000000, 38.000000)">
            <path d="M123.698392,8.15211149 C131.60251,10.2571487 139.611358,12.8470195 146.289505,17.7076302 C149.622418,20.1686212 152.825958,23.6974736 152.75203,28.0855249 C152.721227,40.1449945 152.869082,52.2106012 152.65962,64.2639337 C152.745869,97.4228723 153.023099,130.581811 152.998456,163.740749 C152.234535,168.576811 153.891751,173.928393 151.119457,178.30417 C147.860472,183.631203 142.297402,186.932981 136.925313,189.811297 C123.347235,196.605105 108.235154,199.685947 93.2216441,201.263191 C85.4961857,201.803259 77.7276029,202.324915 69.9836626,201.748024 C53.2328482,200.852003 36.3218569,197.881629 21.000314,190.860747 C14.8396614,187.853551 8.50034992,184.238779 4.68690598,178.359404 C2.36433996,174.922609 3.15906414,170.6573 3.03585109,166.772494 C2.93728065,151.233269 3.27611654,135.694044 3.10361827,120.148682 C2.87567413,102.54738 3.1775461,84.9460775 3.14674284,67.3386382 C2.96808391,54.2419928 3.0481724,41.1392103 3.0481724,28.0364278 C2.96192326,24.4277926 5.22904341,21.254894 7.85964206,18.9902913 C13.9833307,13.8657839 21.6656645,11.1408961 29.2309458,8.91311619 C42.5379554,5.23083539 56.3562991,3.55539763 70.1376789,3.11352394 C88.0959811,2.60414176 106.232942,3.7272374 123.698392,8.15211149 Z M123.698392,8.15211149" id="Shape" fill="#FFFFFF" sketch:type="MSShapeGroup"></path>
            <path d="M77.2716646,23.0682669 C80.873535,22.7913258 84.4506077,23.4129048 87.9966832,23.9298616 C105.510081,26.5946509 122.880891,30.0964178 140.400488,32.7058189 C142.055737,32.9027548 143.748182,33.1489247 145.40963,32.908909 C147.666223,31.7334477 149.166486,29.6102322 150.679148,27.6470272 C151.1999,31.1241772 150.914726,34.6567154 150.97672,38.1584823 C150.939524,46.5590305 151.057313,54.9657329 150.927125,63.366281 C150.418771,65.8464428 150.76594,68.8620242 148.720127,70.720607 C147.381049,71.9514566 145.818792,73.4407845 143.828774,73.1453806 C136.029888,72.7084291 128.367389,71.0283194 120.624298,70.0928738 C120.5995,73.9885126 120.587101,77.8841514 120.636697,81.7859444 C104.803345,84.9492278 88.6290253,86.4570185 72.4795031,85.8785192 C56.8693315,85.4415676 41.2281627,83.3860489 26.2379343,78.967299 C21.0304108,77.3302691 15.7918902,75.5024575 11.2043099,72.5114931 C9.17089601,71.0960161 6.93910022,69.1943536 7.1622798,66.4680219 C6.8399093,57.852075 7.11268434,49.2238197 7.02589228,40.6017187 C7.11268434,36.3491335 6.79651327,32.0719313 7.28006902,27.8316547 C9.50566537,31.9857719 13.9196615,34.1459128 17.9988882,36.1152721 C26.2379343,39.8755175 35.072126,42.1525891 43.9373148,43.9065497 C67.0426006,48.2329859 90.9786104,48.2329859 114.077697,43.8326987 C116.44588,43.3465132 118.882257,43.0080295 121.120252,42.0479669 C119.093038,40.6263357 116.855043,39.5739593 114.561252,38.6508222 C103.87343,34.2628435 92.9128334,30.5579864 82.2498091,26.0961568 C80.4767713,25.2961046 78.567346,24.5883661 77.2716646,23.0682669 C77.2716646,23.0682669 78.567346,24.5883661 77.2716646,23.0682669 L77.2716646,23.0682669 L77.2716646,23.0682669 Z M77.2716646,23.0682669" id="Shape" fill="#689D08" sketch:type="MSShapeGroup"></path>
            <path d="M7.0112608,87.0371294 C23.8644314,97.2229676 43.7310828,100.824522 63.101688,102.433463 C80.3082916,103.534969 97.6947118,103.033722 114.684295,99.921039 C127.321073,97.5447559 139.970252,93.8689431 150.939074,87 C151.056885,97.6808972 150.957676,108.361794 150.994879,119.04888 C151.149893,123.368269 147.758177,126.697541 144.552479,129.104765 C136.801756,134.531849 127.50089,137.137097 118.38604,139.216344 C105.743062,141.858721 92.8024559,143.145875 79.8866523,142.978792 C64.775844,143.195381 49.5782277,141.765898 34.90146,138.096273 C27.101133,136.023214 19.1891957,133.436531 12.678589,128.516882 C9.75811679,126.202482 6.86244693,122.996975 7.00506022,119.030315 C7.01746138,108.361794 7.00506022,97.6994619 7.0112608,87.0371294 C7.0112608,87.0371294 7.00506022,97.6994619 7.0112608,87.0371294 L7.0112608,87.0371294 L7.0112608,87.0371294 Z M7.0112608,87.0371294" id="Shape" fill="#689D08" sketch:type="MSShapeGroup"></path>
            <path d="M7.05021572,143 C19.6282553,150.489857 33.9606493,154.436126 48.3364372,156.641576 C66.5990812,159.348827 85.2150756,159.602826 103.54591,157.453132 C120.004606,155.507875 136.574887,151.536826 150.938277,143 C151.018866,152.137749 150.938277,161.281694 150.981671,170.425638 C151.260632,174.762197 148.309845,178.448272 145.235075,181.155524 C138.595804,186.75588 130.425348,190.132201 122.242493,192.789893 C104.40139,198.266347 85.5002357,199.901849 66.9276352,198.551321 C56.4015084,197.776935 45.9311739,195.924605 35.8389864,192.808478 C28.1644605,190.336639 20.5395277,187.214317 14.1110275,182.252054 C10.4411411,179.39612 6.75265737,175.356925 7.01302093,170.388468 C7.05641485,161.256913 6.98202526,152.125359 7.05021572,143 C7.05021572,143 6.98202526,152.125359 7.05021572,143 L7.05021572,143 L7.05021572,143 Z M7.05021572,143" id="Shape" fill="#689D08" sketch:type="MSShapeGroup"></path>
        </g>
        <text id="NODEBASE" fill="#393939" sketch:type="MSTextLayer" font-family="Droid Sans Mono for Powerline" font-size="64" font-weight="normal">
            <tspan x="782" y="359">NODE</tspan>
            <tspan x="935.625" y="359" fill="#689D08">BASE</tspan>
        </text>
        <text id="NODEBASE" fill="#393939" sketch:type="MSTextLayer" font-family="Droid Sans Mono for Powerline" font-size="200" font-weight="normal">
            <tspan x="253" y="706">NODE</tspan>
            <tspan x="733.078125" y="706" fill="#689D08">BASE</tspan>
        </text>
        <text id="LEVELDB" fill="#689D08" sketch:type="MSTextLayer" font-family="Droid Sans Mono for Powerline" font-size="200" font-weight="normal">
            <tspan x="354" y="1191">LEVEL</tspan>
            <tspan x="954.097656" y="1191" fill="#393939">DB</tspan>
        </text>
    </g>
</svg>